<?xml version="1.0" encoding="UTF-8" standalone="yes"?>
<svg version="1.1" id="Layer_1" xmlns="http://www.w3.org/2000/svg" xmlns:xlink="http://www.w3.org/1999/xlink" x="0px" y="0px" viewBox="0 0 315 315" style="enable-background:new 0 0 315 315;" xml:space="preserve">
      <style type="text/css">.st0{fill:#E92635;}	.st1{fill:#FFFFFF;}</style>
    <g id="color_index_1" fill="#E92635">
              <path d="M263.8636475,315H51.1363564C22.8945274,315,0,292.1054688,0,263.8636475V51.1363564&#x9;&#x9;C0,22.8945274,22.8945274,0,51.1363564,0h212.7272949C292.1054688,0,315,22.8945274,315,51.1363564v212.7272949&#x9;&#x9;C315,292.1054688,292.1054688,315,263.8636475,315z"/>
          </g>
    <g id="color_index_0" fill="#f4f4f4">
              <path d="M177.9103394,155.0662079l8.8219147-20.9196014l-12.9095917-8.3736038&#x9;&#x9;c0.8567505-5.5784073,0.8660431-11.1723862,0.0984497-16.6191788l13.0229034-8.2129974l-8.5543518-21.0304184&#x9;&#x9;l-15.0637665,3.2105255c-3.2522278-4.4326782-7.1624908-8.4293823-11.6675873-11.8240662l3.4011688-15.0161438&#x9;&#x9;l-20.9196014-8.8219185l-8.3771896,12.9151077c-5.5759888-0.8569946-11.1683884-0.8673019-16.6138611-0.1013412&#x9;&#x9;l-8.2145996-13.0255814L79.903801,55.801342l3.2091904,15.0577507c-4.4359131,3.2524414-8.435257,7.1640015-11.8317261,11.6716003&#x9;&#x9;l-15.007267-3.3991089l-8.8219223,20.9196014l12.9095459,8.3734741c-0.8569145,5.5785446-0.8661079,11.1727753-0.098774,16.6194611&#x9;&#x9;l-13.0224953,8.2127457l8.5543518,21.030426l15.0612068-3.2099304c3.2527084,4.4340363,7.1636581,8.4313507,11.6695328,11.825943&#x9;&#x9;l-3.4005814,15.0137634l20.9196014,8.8219147l8.3784714-12.9171753c5.5756149,0.8563995,11.1670074,0.8666077,16.6113052,0.1011963&#x9;&#x9;l8.2159119,13.02771l21.0304108-8.5543518l-3.2093048-15.0582275c4.4360504-3.2522736,8.4352722-7.1637878,11.8317566-11.6711578&#x9;&#x9;L177.9103394,155.0662079z M101.6074371,153.7992706c-20.265892-8.5462494-29.7715149-31.9153061-21.2252655-52.1811981&#x9;&#x9;c8.5462875-20.2659836,31.9153442-29.7715988,52.1812439-21.2253494&#x9;&#x9;c20.2794189,8.5519485,29.7850342,31.9210129,21.2387543,52.1869888&#x9;&#x9;C145.2559204,152.8456116,121.8868561,162.3512268,101.6074371,153.7992706z"/>
        <path d="M267.7596436,217.5619965l-0.3073425-18.7461395l-12.5447845-2.0237579&#x9;&#x9;c-1.2120209-4.5002899-3.069519-8.7299042-5.4649506-12.5893555l7.1019287-10.5459595l-13.4728394-13.0381927l-10.311264,7.4465942&#x9;&#x9;c-3.9346619-2.2650909-8.2211914-3.9814453-12.7564697-5.044693l-2.4352875-12.4790192l-18.7461395,0.3073425&#x9;&#x9;l-2.0246277,12.5501404c-4.4985504,1.2110291-8.7273102,3.0672455-12.5863037,5.4609985l-10.5480499-7.1034241&#x9;&#x9;l-13.038208,13.4728394l7.4435883,10.3071747c-2.2674713,3.9358978-3.9853973,8.2242737-5.0491638,12.7620544&#x9;&#x9;l-12.4716187,2.4338837l0.3073425,18.7461395l12.5447083,2.0236664c1.2119293,4.500473,3.0695953,8.7302246,5.464798,12.5896912&#x9;&#x9;l-7.1017151,10.5456238l13.4728546,13.038208l10.3095245-7.4452972c3.9354706,2.2659454,8.2227173,3.9825439,12.7585602,5.0454559&#x9;&#x9;l2.4349365,12.4770508l18.7461395-0.3073425l2.0249023-12.5521545c4.4980774-1.2113495,8.7260437-3.0673065,12.5843353-5.4602509&#x9;&#x9;l10.5497437,7.104599l13.0381927-13.4728546l-7.4438171-10.3074799c2.2676239-3.9358215,3.9854736-8.2241211,5.0493164-12.761734&#x9;&#x9;L267.7596436,217.5619965z M209.6870422,242.037262c-18.1603546,0.2977295-33.1314087-14.1903381-33.4291534-32.3506927&#x9;&#x9;c-0.2977295-18.1604309,14.1903534-33.1315002,32.3506927-33.4292297&#x9;&#x9;c18.1724854-0.2979431,33.1435394,14.1901398,33.4412842,32.3505707&#x9;&#x9;C242.3475952,226.7682648,227.8595123,241.7393188,209.6870422,242.037262z"/>
          </g>
  </svg>